<svg xmlns="http://www.w3.org/2000/svg" width="1412.125" height="505.88" viewBox="0 0 1412.125 505.88">
  <path id="Path_819" data-name="Path 819" d="M-385.41-102.66h24.65l16.385,65.83h.29l21.46-65.83H-301.6l21.315,67.57h.29l17.255-67.57h22.91L-269.845,0H-290l-22.62-71.05h-.29L-335.53,0h-19.43Zm179.8,0h69.745v20.88H-182.99v19.14h44.515v20.88H-182.99v20.88h49.735V0H-205.61Zm113.68,0h38.28a96.78,96.78,0,0,1,13.412.943,36.637,36.637,0,0,1,12.108,3.77,23.185,23.185,0,0,1,8.7,7.9q3.335,5.075,3.335,13.485,0,8.7-4.857,14.427A26.709,26.709,0,0,1-33.785-53.94v.29a29.29,29.29,0,0,1,9.207,2.828,24.592,24.592,0,0,1,7.105,5.365A22.852,22.852,0,0,1-12.9-37.845a26.744,26.744,0,0,1,1.6,9.28q0,8.12-3.48,13.557a27.358,27.358,0,0,1-8.99,8.772,39.425,39.425,0,0,1-12.4,4.785A66.36,66.36,0,0,1-49.88,0H-91.93Zm22.62,41.035h16.385a23.028,23.028,0,0,0,5.148-.58A14.236,14.236,0,0,0-43.21-64.09a9.814,9.814,0,0,0,3.263-3.48,10.426,10.426,0,0,0,1.233-5.22,9.469,9.469,0,0,0-1.378-5.293,9.583,9.583,0,0,0-3.553-3.262,16.928,16.928,0,0,0-4.93-1.667,29.59,29.59,0,0,0-5.365-.507H-69.31Zm0,42.485h20.3a24.992,24.992,0,0,0,5.292-.58,14,14,0,0,0,4.857-2.03,11.545,11.545,0,0,0,3.553-3.77,10.894,10.894,0,0,0,1.378-5.655,9.066,9.066,0,0,0-1.812-5.872,11.491,11.491,0,0,0-4.568-3.408,23.4,23.4,0,0,0-5.945-1.595,44.167,44.167,0,0,0-5.945-.435H-69.31ZM75.98-77.575a16.109,16.109,0,0,0-7.467-5.147A26.763,26.763,0,0,0,59.6-84.39a23.366,23.366,0,0,0-5.075.58A19.45,19.45,0,0,0,49.59-82a10.746,10.746,0,0,0-3.77,3.263,8.259,8.259,0,0,0-1.45,4.93,8.172,8.172,0,0,0,3.48,7.1,32.954,32.954,0,0,0,8.772,4.205q5.292,1.74,11.382,3.48a46.9,46.9,0,0,1,11.382,4.93A26.948,26.948,0,0,1,88.16-45.53q3.48,5.365,3.48,14.355A33,33,0,0,1,88.45-16.24,30.307,30.307,0,0,1,79.823-5.655,36.713,36.713,0,0,1,67.208.58,55.425,55.425,0,0,1,52.055,2.61,54.969,54.969,0,0,1,33.5-.435a46.509,46.509,0,0,1-15.95-9.86L33.64-27.985a23.5,23.5,0,0,0,8.773,7.177A25.042,25.042,0,0,0,53.36-18.27a24.768,24.768,0,0,0,5.583-.653,18.184,18.184,0,0,0,5.075-1.957,10.945,10.945,0,0,0,3.625-3.335A8.315,8.315,0,0,0,69.02-29a8.682,8.682,0,0,0-3.552-7.322A32.742,32.742,0,0,0,56.55-40.89q-5.365-1.885-11.6-3.77a52.093,52.093,0,0,1-11.6-5.075,27.955,27.955,0,0,1-8.918-8.41Q20.88-63.365,20.88-71.92a30.839,30.839,0,0,1,3.263-14.5,31.457,31.457,0,0,1,8.7-10.44,37.821,37.821,0,0,1,12.543-6.307,51.34,51.34,0,0,1,14.645-2.1,57.583,57.583,0,0,1,16.82,2.465A38.794,38.794,0,0,1,91.5-94.54Zm55.39-25.085h22.62V0H131.37Zm86.275,20.01h-29.29v-20.01h81.2v20.01h-29.29V0h-22.62Zm87.435-20.01h69.745v20.88H327.7v19.14h44.515v20.88H327.7v20.88h49.735V0H305.08ZM-209.888,158.415a49.514,49.514,0,0,1-2.755,16.82,37.012,37.012,0,0,1-8.193,13.34,37.527,37.527,0,0,1-13.557,8.845,50.9,50.9,0,0,1-18.705,3.19,51.341,51.341,0,0,1-18.85-3.19,37.527,37.527,0,0,1-13.557-8.845,37.012,37.012,0,0,1-8.193-13.34,49.514,49.514,0,0,1-2.755-16.82V95.34h22.62v62.205a25,25,0,0,0,1.522,8.845,21.132,21.132,0,0,0,4.277,7.033,19.423,19.423,0,0,0,6.6,4.64,20.716,20.716,0,0,0,8.338,1.667,20.2,20.2,0,0,0,8.265-1.667,19.611,19.611,0,0,0,6.525-4.64,21.131,21.131,0,0,0,4.278-7.033,25,25,0,0,0,1.523-8.845V95.34h22.62Zm44.08-63.075h30.74l43.645,71.34h.29V95.34h22.62V198h-29.58l-44.8-73.08h-.29V198h-22.62Zm141.375,0H9.5A96.843,96.843,0,0,1,32.915,98.1a53.588,53.588,0,0,1,19.358,8.917,43.683,43.683,0,0,1,13.122,16.022q4.858,9.86,4.857,23.925a48.816,48.816,0,0,1-4.713,21.968,47.236,47.236,0,0,1-12.687,15.95,56.091,56.091,0,0,1-18.415,9.787A71.515,71.515,0,0,1,12.542,198H-24.433Zm22.62,81.78H9.932a63.216,63.216,0,0,0,14.573-1.6,31.142,31.142,0,0,0,11.673-5.292,25.381,25.381,0,0,0,7.757-9.715A34.455,34.455,0,0,0,46.762,145.8a28.7,28.7,0,0,0-2.827-13.123,26.236,26.236,0,0,0-7.613-9.207,33.317,33.317,0,0,0-11.237-5.438,49.9,49.9,0,0,0-13.558-1.812H-1.813ZM109.692,95.34h69.745v20.88H132.312v19.14h44.515v20.88H132.312v20.88h49.735V198H109.692Zm113.68,0H263.1a70.1,70.1,0,0,1,14.863,1.523,35.262,35.262,0,0,1,12.325,5.075,25.289,25.289,0,0,1,8.41,9.57q3.118,6.017,3.118,15.007,0,10.875-5.655,18.488t-16.53,9.643L305.732,198H278.617l-21.46-41.035H245.992V198h-22.62Zm22.62,42.485h13.34q3.045,0,6.453-.217a20.212,20.212,0,0,0,6.163-1.305,10.659,10.659,0,0,0,4.567-3.408,10.375,10.375,0,0,0,1.813-6.525,10.833,10.833,0,0,0-1.6-6.235,10.633,10.633,0,0,0-4.06-3.553,18.011,18.011,0,0,0-5.655-1.667,46.126,46.126,0,0,0-6.235-.435h-14.79Zm-881.165,182.2a22.183,22.183,0,0,0-8.193-6.235A27.26,27.26,0,0,0-654.6,311.61a28.283,28.283,0,0,0-11.818,2.465,28.274,28.274,0,0,0-9.425,6.887,32.1,32.1,0,0,0-6.235,10.513,37.821,37.821,0,0,0-2.247,13.195,37.652,37.652,0,0,0,2.247,13.268,32.972,32.972,0,0,0,6.163,10.44,27.929,27.929,0,0,0,9.207,6.888,26.626,26.626,0,0,0,11.383,2.465A25.51,25.51,0,0,0-643,374.83a24.53,24.53,0,0,0,8.845-8.12l18.85,14.065a39.254,39.254,0,0,1-16.53,13.485,51.147,51.147,0,0,1-20.59,4.35,63.246,63.246,0,0,1-22.185-3.77,50.784,50.784,0,0,1-17.545-10.8A48.975,48.975,0,0,1-703.685,367a57.98,57.98,0,0,1-4.133-22.33,57.98,57.98,0,0,1,4.133-22.33A48.975,48.975,0,0,1-692.158,305.3a50.784,50.784,0,0,1,17.545-10.8,63.246,63.246,0,0,1,22.185-3.77,54.325,54.325,0,0,1,9.063.8,48.966,48.966,0,0,1,9.28,2.538,41.356,41.356,0,0,1,8.773,4.64,34.89,34.89,0,0,1,7.54,7.1Zm49.88,24.65a57.98,57.98,0,0,1,4.133-22.33A48.975,48.975,0,0,1-569.633,305.3a50.784,50.784,0,0,1,17.545-10.8,63.246,63.246,0,0,1,22.185-3.77,63.246,63.246,0,0,1,22.185,3.77,50.784,50.784,0,0,1,17.545,10.8,48.975,48.975,0,0,1,11.528,17.038,57.981,57.981,0,0,1,4.132,22.33A57.981,57.981,0,0,1-478.645,367a48.975,48.975,0,0,1-11.528,17.038,50.784,50.784,0,0,1-17.545,10.8,63.246,63.246,0,0,1-22.185,3.77,63.246,63.246,0,0,1-22.185-3.77,50.784,50.784,0,0,1-17.545-10.8A48.975,48.975,0,0,1-581.16,367,57.98,57.98,0,0,1-585.293,344.67Zm23.49,0a37.652,37.652,0,0,0,2.247,13.268,30.389,30.389,0,0,0,6.453,10.44,29.451,29.451,0,0,0,10.078,6.888A33.6,33.6,0,0,0-529.9,377.73a33.6,33.6,0,0,0,13.122-2.465,29.451,29.451,0,0,0,10.077-6.888,30.389,30.389,0,0,0,6.453-10.44A37.652,37.652,0,0,0-498,344.67a37.822,37.822,0,0,0-2.247-13.195,30.253,30.253,0,0,0-6.453-10.513,29.45,29.45,0,0,0-10.077-6.887A33.6,33.6,0,0,0-529.9,311.61a33.6,33.6,0,0,0-13.122,2.465,29.451,29.451,0,0,0-10.078,6.887,30.253,30.253,0,0,0-6.453,10.513A37.821,37.821,0,0,0-561.8,344.67Zm125.86-51.33h30.74l43.645,71.34h.29V293.34h22.62V396h-29.58l-44.8-73.08h-.29V396h-22.62Zm192.125,25.085a16.109,16.109,0,0,0-7.467-5.147,26.763,26.763,0,0,0-8.918-1.668,23.364,23.364,0,0,0-5.075.58,19.449,19.449,0,0,0-4.93,1.813,10.746,10.746,0,0,0-3.77,3.263,8.259,8.259,0,0,0-1.45,4.93,8.172,8.172,0,0,0,3.48,7.1,32.954,32.954,0,0,0,8.772,4.205q5.293,1.74,11.383,3.48a46.9,46.9,0,0,1,11.383,4.93,26.948,26.948,0,0,1,8.772,8.555q3.48,5.365,3.48,14.355a33,33,0,0,1-3.19,14.935,30.306,30.306,0,0,1-8.628,10.585,36.713,36.713,0,0,1-12.615,6.235,55.425,55.425,0,0,1-15.152,2.03,54.969,54.969,0,0,1-18.56-3.045,46.509,46.509,0,0,1-15.95-9.86l16.1-17.69a23.5,23.5,0,0,0,8.772,7.177,25.042,25.042,0,0,0,10.948,2.538,24.768,24.768,0,0,0,5.582-.652,18.185,18.185,0,0,0,5.075-1.958,10.944,10.944,0,0,0,3.625-3.335A8.315,8.315,0,0,0-250.778,367a8.682,8.682,0,0,0-3.553-7.323,32.742,32.742,0,0,0-8.917-4.568q-5.365-1.885-11.6-3.77a52.094,52.094,0,0,1-11.6-5.075,27.956,27.956,0,0,1-8.918-8.41q-3.552-5.22-3.552-13.775a30.838,30.838,0,0,1,3.263-14.5,31.457,31.457,0,0,1,8.7-10.44,37.82,37.82,0,0,1,12.543-6.307,51.339,51.339,0,0,1,14.645-2.1,57.583,57.583,0,0,1,16.82,2.465A38.794,38.794,0,0,1-228.3,301.46Zm75.545-5.075h-29.29V293.34h81.2v20.01h-29.29V396h-22.62Zm86.565-20.01h39.73a70.1,70.1,0,0,1,14.863,1.522,35.262,35.262,0,0,1,12.325,5.075,25.288,25.288,0,0,1,8.41,9.57q3.118,6.017,3.118,15.008,0,10.875-5.655,18.487t-16.53,9.642L.652,396H-26.463l-21.46-41.035H-59.088V396h-22.62Zm22.62,42.485h13.34q3.045,0,6.452-.218a20.212,20.212,0,0,0,6.163-1.3,10.659,10.659,0,0,0,4.567-3.408,10.375,10.375,0,0,0,1.813-6.525,10.833,10.833,0,0,0-1.6-6.235,10.633,10.633,0,0,0-4.06-3.553,18.011,18.011,0,0,0-5.655-1.667,46.125,46.125,0,0,0-6.235-.435h-14.79Zm181.105,20.59a49.514,49.514,0,0,1-2.755,16.82,37.012,37.012,0,0,1-8.192,13.34,37.527,37.527,0,0,1-13.558,8.845,50.905,50.905,0,0,1-18.705,3.19,51.341,51.341,0,0,1-18.85-3.19A37.527,37.527,0,0,1,46.4,386.575a37.012,37.012,0,0,1-8.192-13.34,49.514,49.514,0,0,1-2.755-16.82V293.34h22.62v62.2a25,25,0,0,0,1.522,8.845,21.131,21.131,0,0,0,4.278,7.032,19.423,19.423,0,0,0,6.6,4.64,20.716,20.716,0,0,0,8.338,1.668,20.2,20.2,0,0,0,8.265-1.668,19.612,19.612,0,0,0,6.525-4.64,21.131,21.131,0,0,0,4.278-7.032,25,25,0,0,0,1.522-8.845v-62.2h22.62ZM233.232,320.02a22.183,22.183,0,0,0-8.193-6.235A27.26,27.26,0,0,0,213.8,311.61a28.119,28.119,0,0,0-21.243,9.353,32.1,32.1,0,0,0-6.235,10.513,40.07,40.07,0,0,0,0,26.462,32.973,32.973,0,0,0,6.163,10.44,27.929,27.929,0,0,0,9.208,6.888,26.626,26.626,0,0,0,11.382,2.465,25.51,25.51,0,0,0,12.325-2.9,24.53,24.53,0,0,0,8.845-8.12l18.85,14.065a39.254,39.254,0,0,1-16.53,13.485,51.147,51.147,0,0,1-20.59,4.35,63.246,63.246,0,0,1-22.185-3.77,50.784,50.784,0,0,1-17.545-10.8A48.975,48.975,0,0,1,164.72,367a62.4,62.4,0,0,1,0-44.66A48.975,48.975,0,0,1,176.247,305.3a50.784,50.784,0,0,1,17.545-10.8,63.246,63.246,0,0,1,22.185-3.77,54.325,54.325,0,0,1,9.063.8,48.967,48.967,0,0,1,9.28,2.538,41.355,41.355,0,0,1,8.772,4.64,34.891,34.891,0,0,1,7.54,7.1Zm75.255-6.67H279.2V293.34h81.2v20.01h-29.29V396h-22.62Zm86.275-20.01h22.62V396h-22.62Zm60.9,51.33a57.98,57.98,0,0,1,4.133-22.33A48.975,48.975,0,0,1,471.322,305.3a50.784,50.784,0,0,1,17.545-10.8,67.16,67.16,0,0,1,44.37,0,50.784,50.784,0,0,1,17.545,10.8A48.975,48.975,0,0,1,562.31,322.34a62.4,62.4,0,0,1,0,44.66,48.975,48.975,0,0,1-11.528,17.038,50.784,50.784,0,0,1-17.545,10.8,67.16,67.16,0,0,1-44.37,0,50.784,50.784,0,0,1-17.545-10.8A48.975,48.975,0,0,1,459.795,367,57.98,57.98,0,0,1,455.662,344.67Zm23.49,0a37.652,37.652,0,0,0,2.247,13.268,30.389,30.389,0,0,0,6.452,10.44,29.451,29.451,0,0,0,10.078,6.888,36.162,36.162,0,0,0,26.245,0,29.451,29.451,0,0,0,10.078-6.888,30.39,30.39,0,0,0,6.453-10.44,40.071,40.071,0,0,0,0-26.462,30.254,30.254,0,0,0-6.453-10.513,29.451,29.451,0,0,0-10.078-6.887,36.161,36.161,0,0,0-26.245,0,29.451,29.451,0,0,0-10.078,6.887,30.253,30.253,0,0,0-6.452,10.513A37.822,37.822,0,0,0,479.152,344.67Zm125.86-51.33h30.74L679.4,364.68h.29V293.34h22.62V396h-29.58l-44.805-73.08h-.29V396h-22.62Z" transform="translate(708.817 106.27)" fill="none" stroke="#fff" stroke-width="2"/>
</svg>
