<svg id="instagram" xmlns="http://www.w3.org/2000/svg" width="61.426" height="61.426" viewBox="0 0 61.426 61.426">
  <path id="Path_206" data-name="Path 206" d="M218.757,212.879A5.879,5.879,0,1,1,212.879,207,5.879,5.879,0,0,1,218.757,212.879Zm0,0" transform="translate(-182.166 -182.165)" fill="#fff"/>
  <path id="Path_207" data-name="Path 207" d="M163.691,139.545a5.84,5.84,0,0,0-3.347-3.347,9.758,9.758,0,0,0-3.274-.607c-1.86-.085-2.418-.1-7.127-.1s-5.267.018-7.127.1a9.764,9.764,0,0,0-3.274.607,5.843,5.843,0,0,0-3.348,3.347,9.761,9.761,0,0,0-.607,3.275c-.085,1.86-.1,2.417-.1,7.127s.018,5.267.1,7.127a9.758,9.758,0,0,0,.607,3.274,5.84,5.84,0,0,0,3.347,3.347,9.746,9.746,0,0,0,3.275.607c1.86.085,2.417.1,7.126.1s5.268-.018,7.127-.1a9.746,9.746,0,0,0,3.275-.607,5.84,5.84,0,0,0,3.347-3.347,9.767,9.767,0,0,0,.607-3.274c.085-1.86.1-2.418.1-7.127s-.018-5.267-.1-7.127A9.745,9.745,0,0,0,163.691,139.545ZM149.943,159A9.056,9.056,0,1,1,159,149.946,9.056,9.056,0,0,1,149.943,159Zm9.414-16.354a2.116,2.116,0,1,1,2.116-2.116A2.116,2.116,0,0,1,159.357,142.649Zm0,0" transform="translate(-119.23 -119.233)" fill="#fff"/>
  <path id="Path_208" data-name="Path 208" d="M30.713,0A30.713,30.713,0,1,0,61.426,30.713,30.716,30.716,0,0,0,30.713,0Zm17.53,37.984a12.939,12.939,0,0,1-.82,4.281,9.018,9.018,0,0,1-5.158,5.158,12.948,12.948,0,0,1-4.281.82c-1.881.086-2.481.106-7.271.106s-5.39-.021-7.271-.106a12.948,12.948,0,0,1-4.281-.82A9.018,9.018,0,0,1,14,42.265a12.936,12.936,0,0,1-.82-4.281c-.087-1.881-.107-2.482-.107-7.272s.02-5.39.106-7.271A12.941,12.941,0,0,1,14,19.161,9.024,9.024,0,0,1,19.161,14a12.951,12.951,0,0,1,4.281-.82c1.881-.086,2.481-.106,7.271-.106s5.39.021,7.271.107A12.954,12.954,0,0,1,42.265,14a9.02,9.02,0,0,1,5.158,5.158,12.938,12.938,0,0,1,.82,4.281c.086,1.881.106,2.481.106,7.271S48.329,36.1,48.243,37.984Zm0,0" fill="#fff"/>
</svg>
