<svg xmlns="http://www.w3.org/2000/svg" width="398.398" height="158.248" viewBox="0 0 398.398 158.248">
  <g id="Group_42" data-name="Group 42" transform="translate(-18584 2657)">
    <path id="Path_810" data-name="Path 810" d="M387,233.82c0-4.29.3-7.24-.07-10.1a28.248,28.248,0,0,1,0-4.7h11.19v-22.6s2.072-.038,3.56,0c6.16.16,12.33.25,18.48,0,1.4-.064,4.07,0,4.07,0l-.13,3.828V215.23l.12,3.79s2.215.094,3.88.1h9.17s-.06,3.837-.06,8.95c0,3.574.06,7.22.06,7.22s-3.6,0-7.11-.22a47.42,47.42,0,0,0-6.06.43,31.611,31.611,0,0,0,.01,5.52c.47,5.28.06,10.64.11,16,.06,6.46,2.27,9.11,8.6,8.87,1.583-.058,4.45,0,4.45,0s.141,2.687,0,4.78a107.223,107.223,0,0,0,0,11.48c.023.8,0,2.95,0,2.95s-1.448-.062-2.82,0c-7.64.35-15.25,1.07-22.89,0-9.86-1.43-14.41-6.46-14.46-16.36-.05-9.15-.37-18.33.13-27.45.115-2.155,0-6,0-6a21.955,21.955,0,0,0-6.3,0c-.8.14-1.64.13-2.87.21,1.62,5.54,3.29,10.86,3.66,16.51a21.218,21.218,0,0,1-.79,5.19,31.217,31.217,0,0,1-4.26.2c-13.48-.3-27,.05-40.46-.2-1.851-.033-4.43.2-4.43.2a26.886,26.886,0,0,0,1.2,4.72c3.34,8.64,15.8,11,20,3.46.214-.377.936-1.67.936-1.67s1.327.053,2.344.06c6.83,0,13.66.12,20.48-.06.987-.026,2.9.06,2.9.06a24.611,24.611,0,0,1-.659,3.34c-1.75,5.65-5.11,10.33-10.19,13.11-15.57,8.53-31.81,9.81-47.71,1.46-13.7-7.2-19.75-23.22-16-39.07,3.51-15,16.41-25.66,32.29-26.62S377,218.35,387,233.82Z" transform="translate(18463 -2849.811)" fill="#fe7900"/>
    <path id="Path_809" data-name="Path 809" d="M296,236.81c8.36,3.91,13.92,9.61,15.21,18.71,2,13.84-7.67,25.58-23.25,28.46-6.78,1.25-13.6.77-20.41.81-12.81.08-25.63-.06-38.44.09-3.05,0-4-.86-4-3.94.11-28.11.07-56.23.06-84.35,0-1.87-.27-3.69,2.64-3.6,17.77.56,35.63-1.33,53.33,1.09,13.49,1.84,23.09,10.44,25,21.07C307.81,224.56,304.22,231.58,296,236.81Z" transform="translate(18463 -2849.811)" fill="#fe7900"/>
    <path id="Path_807" data-name="Path 807" d="M167,284.82c-14,0-28-.09-41.95.06-3.23,0-4.24-.82-4.22-4.16q.2-41.94,0-83.88c0-3.08.83-3.9,3.9-3.89q42,.18,83.9,0c2.94,0,4,.59,4,3.8q-.19,41.94,0,83.89c0,3.17-.82,4.3-4.2,4.25C194.62,284.7,180.8,284.82,167,284.82Z" transform="translate(18463.17 -2849.811)" fill="#fe7900"/>
    <path id="Path_816" data-name="Path 816" d="M488.45,279.3c-9.57,7-20.24,8.92-31.7,6.61-10.15-2-15.74-8.53-16.33-18.6-.57-9.63,4.32-16.79,13.85-20.06,7.45-2.57,15.33-3,23-4.23a20.111,20.111,0,0,0,7.14-2.06c1.49-.87,2.74-2,2.41-4-.29-1.64-1.55-2.44-3-3a11.29,11.29,0,0,0-13.17,3.65,3.23,3.23,0,0,1-2.91,1.39H443.28c.95-11,5.8-17.78,15.54-20.47a79.9,79.9,0,0,1,39.52-.85c11.42,2.61,16.43,9.5,16.57,21.68.12,10.83.05,21.66,0,32.48,0,3.72.13,7.25,3.13,10.13,2,1.9.91,2.84-1.46,2.84-8,0-16-.12-24,.05C488.41,285,490.21,281.24,488.45,279.3Z" transform="translate(18463 -2849.811)" fill="#fe7900"/>
    <path id="Path_811" data-name="Path 811" d="M352.65,243c-3,0-6-.12-8.92,0-.2.011-2.116-.01-2.116-.01a5.084,5.084,0,0,1,.316-2.92c1.7-4.62,5.33-7,10.85-6.93,5.86.09,10.42,3,11.86,7.33a6.164,6.164,0,0,1,0,2.52s-1.021.017-2.07,0C359.26,243,356,243,352.65,243Z" transform="translate(18463 -2849.811)" fill="#1a1e21"/>
    <path id="Path_812" data-name="Path 812" d="M266.71,248.11c2.66,0,5.38-.33,8,.08,4.17.66,7.19,3.07,7.25,7.58s-3.3,6.51-7.19,6.83c-5.3.42-10.65.19-16,.21-1,0-2.33.07-2.38-1.18q-.24-6.22-.05-12.47c0-1.26,1.41-1.15,2.38-1.15h8Z" transform="translate(18463 -2849.811)" fill="#1a1e21"/>
    <path id="Path_813" data-name="Path 813" d="M265,216c2.22.1,5-.24,7.81.67,3.08,1,5.42,2.68,5.45,6.21,0,3.31-2.15,5.12-5,6.08-5,1.7-10.21.6-15.32.82-1.22,0-1.75-.78-1.76-1.93v-10c0-1.59,1-1.91,2.27-1.9C260.45,216,262.44,216,265,216Z" transform="translate(18463 -2849.811)" fill="#1a1e21"/>
    <path id="Path_808" data-name="Path 808" d="M135.23,250.65c-2.17-4.19-6.34-7.17-7.13-12.24a32.51,32.51,0,0,1,2.21-17.59c3.7-9.09,9.06-17.15,16.3-25.72,0,9.45.25,17.55-.08,25.64-.23,5.6,2.2,8.72,7.31,10.32a42.17,42.17,0,0,0,26.49-.21c4.56-1.52,7-4.46,6.79-9.7-.32-8.32-.09-16.65-.09-25.07,8.85,6,22.69,27.73,19,43.07-2.07,8.49-7.77,13.87-16,15.46-16.64,3.25-33.36,3.69-49.78-1.77a7.67,7.67,0,0,1-5.02-2.19Z" transform="translate(18463 -2849.811)" fill="#1a1e21"/>
    <path id="Path_814" data-name="Path 814" d="M139.09,253.9c7.692,2.563,13.49,4.35,20.57,4.88,9.74.73,19.47.12,29.79-.43-2,1.84-4,3.6-5.88,5.54-4.16,4.32-8.27,8.74-9.76,14.8-.53,2.18-1.87,2.32-3.68,2.31-8.65-.05-17.3,0-25.95-.05-1.28,0-3.47.68-2.87-2,2.07-9.13-1.81-16.91-5.47-24.76a13.28,13.28,0,0,1-.6-1.88C137.49,250.49,138,252.89,139.09,253.9Z" transform="translate(18463 -2849.811)" fill="#1a1e21"/>
    <path id="Path_815" data-name="Path 815" d="M139.561,254.022c-1.43-.17-2.721-1.942-4.321-1.692v-1.651l.829.6h0c.47.287,1.587.771,1.587.771l1.761.573.041.013.781.2Z" transform="translate(18463 -2849.811)" fill="#fe7900"/>
    <path id="Path_817" data-name="Path 817" d="M475.8,271.13c-3.11-.17-6.72-.73-7.42-4.72s2.41-5.8,5.85-6.71c2.71-.73,5.48-1.25,8.21-1.92,4.77-1.18,5.61-.31,4.31,4.51C485.29,267.68,481.18,271.1,475.8,271.13Z" transform="translate(18463 -2849.811)" fill="#1a1e21"/>
    <path id="Path_820" data-name="Path 820" d="M-150.318,0V-13.11h-1.843V0Zm19.855,0-1.2-13.11h-2.261L-137.7-2.983h-.038l-3.781-10.127h-2.28L-144.98,0h1.824l.836-10.355h.057L-138.254.114h1.045l4.009-10.469h.057L-132.288,0Zm13.471-9.367a3.447,3.447,0,0,0-1.273-2.812,4.746,4.746,0,0,0-3.173-.931h-3.686V0h1.843V-5.624h1.843C-119.044-5.624-116.992-6.726-116.992-9.367Zm-1.9,0c0,1.653-1.235,2.242-2.7,2.242h-1.691v-4.484h1.691C-120.127-11.609-118.892-11-118.892-9.367ZM-99.3-6.536a6.513,6.513,0,0,0-6.764-6.764,6.513,6.513,0,0,0-6.764,6.764A6.513,6.513,0,0,0-106.067.228,6.513,6.513,0,0,0-99.3-6.536Zm-1.881-.038a4.807,4.807,0,0,1-4.883,5.13,4.818,4.818,0,0,1-4.883-5.13,4.8,4.8,0,0,1,4.883-5.13A4.8,4.8,0,0,1-101.185-6.574ZM-85.225,0l-3.743-5.833a3.487,3.487,0,0,0,2.983-3.591c0-2.6-2.09-3.686-4.427-3.686h-3.705V0h1.843V-5.643h1.406L-87.448,0Zm-2.66-9.386a1.982,1.982,0,0,1-.836,1.767,3.625,3.625,0,0,1-2.2.456h-1.349v-4.446h1.349a3.5,3.5,0,0,1,2.2.475A1.949,1.949,0,0,1-87.884-9.386Zm14.991-2.185V-13.11h-9.234v1.539h3.7V0h1.843V-11.571ZM-60.43,0V-1.558h-5.985V-6.1h5.51V-7.657h-5.51v-3.914h5.833V-13.11h-7.676V0Zm16.188-6.555c0-4.066-3-6.555-6.935-6.555h-3.952V0h3.952C-47.244,0-44.242-2.489-44.242-6.555Zm-1.881,0A4.742,4.742,0,0,1-51.177-1.6h-2.109v-9.937h2.109A4.757,4.757,0,0,1-46.123-6.555Zm21.812-5.016V-13.11h-9.234v1.539h3.7V0H-28V-11.571ZM-7.742-6.536A6.513,6.513,0,0,0-14.506-13.3,6.513,6.513,0,0,0-21.27-6.536,6.513,6.513,0,0,0-14.506.228,6.513,6.513,0,0,0-7.742-6.536Zm-1.881-.038a4.807,4.807,0,0,1-4.883,5.13,4.818,4.818,0,0,1-4.883-5.13,4.8,4.8,0,0,1,4.883-5.13A4.8,4.8,0,0,1-9.623-6.574ZM15.153,0,9.795-13.148H8.18L2.841,0H4.779L6.128-3.42h5.624L13.1,0ZM11.239-4.959h-4.6l2.3-5.89Zm18.031-.4V-13.11H27.426v7.581a4.833,4.833,0,0,1-.608,2.945,3.016,3.016,0,0,1-2.527,1.159,2.991,2.991,0,0,1-2.527-1.159,4.8,4.8,0,0,1-.608-2.945V-13.11H19.294v7.752a5.7,5.7,0,0,0,1.064,3.99,4.91,4.91,0,0,0,3.933,1.6,4.964,4.964,0,0,0,3.933-1.6A5.8,5.8,0,0,0,29.269-5.358Zm13.756,1.71a3.536,3.536,0,0,0-2.28-3.268L38.333-7.923c-.8-.323-1.691-.779-1.691-2s.988-1.824,2.28-1.824a3.984,3.984,0,0,1,2.888,1.406l.969-1.254a5.111,5.111,0,0,0-3.762-1.691c-2.09,0-4.218,1.159-4.218,3.5a3.376,3.376,0,0,0,2.166,3.211c.494.247,1.406.608,2.09.874.665.266,2.128.8,2.128,2.166a2.294,2.294,0,0,1-2.565,2.2,4.433,4.433,0,0,1-3.325-1.881L34.21-1.976a5.49,5.49,0,0,0,4.237,2.2C40.746.228,43.026-1.1,43.026-3.648Zm12.9-7.923V-13.11H46.692v1.539H50.4V0H52.24V-11.571ZM69.454,0,65.712-5.833a3.487,3.487,0,0,0,2.983-3.591c0-2.6-2.09-3.686-4.427-3.686H60.563V0h1.843V-5.643h1.406L67.231,0Zm-2.66-9.386a1.982,1.982,0,0,1-.836,1.767,3.625,3.625,0,0,1-2.2.456H62.405v-4.446h1.349a3.5,3.5,0,0,1,2.2.475A1.949,1.949,0,0,1,66.795-9.386ZM84.845,0,79.487-13.148H77.872L72.533,0h1.938L75.82-3.42h5.624L82.793,0ZM80.931-4.959h-4.6l2.3-5.89ZM95.826,0V-1.558H91.21V-13.11H89.367V0Zm6.517,0V-13.11H100.5V0Zm16.815,0L113.8-13.148h-1.615L106.847,0h1.938l1.349-3.42h5.624L117.107,0Zm-3.914-4.959h-4.6l2.3-5.89Zm24.225,1.235a3.2,3.2,0,0,0-2.907-3.192v-.038a2.987,2.987,0,0,0,1.995-2.869,2.916,2.916,0,0,0-1.406-2.66,5.661,5.661,0,0,0-3.116-.627H130.5V0h4.256a5.07,5.07,0,0,0,3.306-.855A3.42,3.42,0,0,0,139.469-3.724Zm-2.755-5.89a1.954,1.954,0,0,1-.874,1.729,3.24,3.24,0,0,1-1.957.4h-1.539v-4.161h1.691C135.441-11.647,136.714-11.286,136.714-9.614Zm.855,5.814a2.034,2.034,0,0,1-.95,1.843,4.016,4.016,0,0,1-2.3.456h-1.976V-6.08h1.976a4.022,4.022,0,0,1,2.3.475A1.972,1.972,0,0,1,137.569-3.8Zm16.055-9.31h-2.071l-3.42,6.023-3.4-6.023h-2.071l4.56,7.619V0h1.843V-5.491Z" transform="translate(18785 -2533.811)" fill="#fe7900"/>
    <path id="Path_821" data-name="Path 821" d="M-190.1-13.11h-2.47v7.619a4.1,4.1,0,0,1-.57,2.565,2.65,2.65,0,0,1-2.2.988,2.676,2.676,0,0,1-2.2-.988,4.093,4.093,0,0,1-.551-2.565V-13.11h-2.489v7.695a5.741,5.741,0,0,0,1.159,4.066A5.219,5.219,0,0,0-195.348.228a5.219,5.219,0,0,0,4.085-1.577A5.741,5.741,0,0,0-190.1-5.415Zm7.942,3.439L-175.512,0h2.489V-13.11h-2.413v6.46c0,1.558.038,3.1.038,3.1l-6.517-9.557h-2.622V0h2.413V-6.441C-182.124-8-182.162-9.671-182.162-9.671Zm14.82-3.439V0h2.47V-13.11Zm8.113,0V0h2.489V-5.168h1.729a5,5,0,0,0,3.287-1.026,3.644,3.644,0,0,0,1.368-2.983,3.606,3.606,0,0,0-1.368-2.964,4.978,4.978,0,0,0-3.287-.969Zm3.914,6h-1.444v-4.066h1.387a2.717,2.717,0,0,1,1.691.437,1.9,1.9,0,0,1,.779,1.558,1.875,1.875,0,0,1-.722,1.577A2.714,2.714,0,0,1-155.316-7.106Zm16.606,4.085L-137.57,0h2.7l-5.149-13.129h-2.394L-147.563,0H-145l1.14-3.021ZM-143.251-5l1.976-5.3,1.957,5.3Zm23.18,3.363-.874-1.862a4.971,4.971,0,0,1-3.743,1.6c-2.622,0-4.389-1.843-4.389-4.674,0-3.1,1.957-4.6,4.237-4.6a5.255,5.255,0,0,1,3.724,1.5l.874-2.014A6.443,6.443,0,0,0-124.82-13.3a6.5,6.5,0,0,0-6.8,6.764,6.482,6.482,0,0,0,6.8,6.764A6.149,6.149,0,0,0-120.07-1.634Zm11.476-11.476V0h8.246V-2.052h-5.776V-5.776h5.3V-7.809h-5.3v-3.249h5.624V-13.11ZM-89.081.228a6.947,6.947,0,0,0,3.325-.817l1.615,1.824,1.558-1.349-1.539-1.71a6.663,6.663,0,0,0,1.9-4.712A6.516,6.516,0,0,0-89.081-13.3,6.526,6.526,0,0,0-95.94-6.536,6.526,6.526,0,0,0-89.081.228Zm4.313-6.783a4.871,4.871,0,0,1-.912,2.964l-1.482-1.767L-88.74-3.99l1.482,1.672a4.478,4.478,0,0,1-1.824.38,4.277,4.277,0,0,1-4.313-4.617,4.25,4.25,0,0,1,4.313-4.6A4.25,4.25,0,0,1-84.769-6.555Zm17.917-6.555h-2.47v7.619a4.1,4.1,0,0,1-.57,2.565,2.65,2.65,0,0,1-2.2.988,2.676,2.676,0,0,1-2.2-.988,4.093,4.093,0,0,1-.551-2.565V-13.11H-77.34v7.695a5.741,5.741,0,0,0,1.159,4.066A5.219,5.219,0,0,0-72.1.228a5.219,5.219,0,0,0,4.085-1.577,5.741,5.741,0,0,0,1.159-4.066Zm5.567,0V0h2.47V-13.11Zm8.113,0V0h2.489V-5.168h1.729a5,5,0,0,0,3.287-1.026A3.644,3.644,0,0,0-44.3-9.177a3.606,3.606,0,0,0-1.368-2.964,4.978,4.978,0,0,0-3.287-.969Zm3.914,6H-50.7v-4.066h1.387a2.717,2.717,0,0,1,1.691.437,1.9,1.9,0,0,1,.779,1.558A1.875,1.875,0,0,1-47.567-7.6,2.714,2.714,0,0,1-49.257-7.106Zm20.9-2.793L-27.6,0h2.432l-1.121-13.11h-3.135l-3.211,9.4h-.038l-3.173-9.4h-3.249L-40.176,0H-37.8l.7-9.9h.057l3.42,9.956h1.729L-28.4-9.9Zm8.322-3.211V0h8.246V-2.052h-5.776V-5.776h5.3V-7.809h-5.3v-3.249h5.624V-13.11ZM-4.3-9.671,2.346,0H4.835V-13.11H2.422v6.46c0,1.558.038,3.1.038,3.1L-4.057-13.11H-6.679V0h2.413V-6.441C-4.266-8-4.3-9.671-4.3-9.671Zm17.233-1.444V0H15.38V-11.115h3.591V-13.11H9.319v1.995ZM32.746,3.059l1.52-.8a16.362,16.362,0,0,1-2.318-8.113,16.362,16.362,0,0,1,2.318-8.113l-1.52-.8a15.442,15.442,0,0,0-2.907,8.911A15.442,15.442,0,0,0,32.746,3.059Zm13.908-6.08L47.795,0h2.7L45.344-13.129H42.95L37.8,0h2.565l1.14-3.021ZM42.114-5l1.976-5.3L46.047-5ZM64.933-13.11h-2.47v7.619a4.1,4.1,0,0,1-.57,2.565,2.65,2.65,0,0,1-2.2.988,2.676,2.676,0,0,1-2.2-.988,4.093,4.093,0,0,1-.551-2.565V-13.11H54.444v7.695A5.741,5.741,0,0,0,55.6-1.349,5.219,5.219,0,0,0,59.688.228a5.219,5.219,0,0,0,4.085-1.577,5.741,5.741,0,0,0,1.159-4.066ZM76.276-7.239l-2.185-.893c-.684-.285-1.5-.646-1.5-1.6,0-.969.855-1.5,1.938-1.5a4.472,4.472,0,0,1,2.964,1.311l1.178-1.767a5.518,5.518,0,0,0-3.99-1.577c-2.755,0-4.541,1.577-4.541,3.857a3.312,3.312,0,0,0,2.375,3.173l2.052.817c1.121.456,1.805.8,1.805,1.824,0,1.14-.836,1.729-2.052,1.729a4.811,4.811,0,0,1-3.5-1.729L69.645-1.8A6.028,6.028,0,0,0,74.281.228c2.774,0,4.56-1.615,4.56-4.047C78.841-5.453,78.119-6.479,76.276-7.239Zm9.709-3.876V0h2.451V-11.115h3.591V-13.11H82.374v1.995ZM95.694,2.261l1.539.8a15.58,15.58,0,0,0,2.907-8.911,15.58,15.58,0,0,0-2.907-8.911l-1.539.8a16.362,16.362,0,0,1,2.318,8.113A16.362,16.362,0,0,1,95.694,2.261ZM112.185-13.11V0h2.489V-5.168H116.4a5,5,0,0,0,3.287-1.026,3.644,3.644,0,0,0,1.368-2.983,3.606,3.606,0,0,0-1.368-2.964,4.978,4.978,0,0,0-3.287-.969Zm3.914,6h-1.444v-4.066h1.387a2.717,2.717,0,0,1,1.691.437,1.9,1.9,0,0,1,.779,1.558A1.875,1.875,0,0,1,117.79-7.6,2.714,2.714,0,0,1,116.1-7.106Zm12.084-4.009V0h2.451V-11.115h3.591V-13.11h-9.652v1.995ZM141.806-5.4V0h2.47V-5.4l4.56-7.714H146.1l-3.04,5.624L140-13.11h-2.736Zm18.069-7.714V0h7.03V-2.052h-4.579V-13.11Zm12.749,1.995V0h2.451V-11.115h3.591V-13.11h-9.652v1.995Zm10.507-1.995V0h4.2a7.458,7.458,0,0,0,4.978-1.634,6.26,6.26,0,0,0,2.09-4.94,6.158,6.158,0,0,0-2.09-4.883,7.36,7.36,0,0,0-4.978-1.653Zm4.294,11.02H185.6v-8.949h1.824a4.553,4.553,0,0,1,3.116,1.064,4.565,4.565,0,0,1,1.311,3.42,4.434,4.434,0,0,1-1.311,3.382A4.465,4.465,0,0,1,187.425-2.09Z" transform="translate(18788 -2501.811)" fill="#fff"/>
  </g>
</svg>
