<svg xmlns="http://www.w3.org/2000/svg" width="447.401" height="222.489" viewBox="0 0 447.401 222.489">
  <g id="Group_30" data-name="Group 30" transform="translate(-13396 468.025)">
    <path id="Path_806" data-name="Path 806" d="M223.785,222.438q-110.4,0-220.793.051c-2.621,0-2.992-.44-2.992-2.044q.1-109.2,0-218.4C0,.464.371,0,2.992,0Q223.617.083,444.235,0c2.705,0,3.167.464,3.167,2.16q-.1,109.084,0,218.169c0,1.692-.461,2.16-3.167,2.155Q334.006,222.4,223.785,222.438Z" transform="translate(13396 -468.025)" fill="#19140f"/>
    <path id="Path_810" data-name="Path 810" d="M387,233.82c0-4.29.3-7.24-.07-10.1a28.248,28.248,0,0,1,0-4.7h11.19v-22.6s2.072-.038,3.56,0c6.16.16,12.33.25,18.48,0,1.4-.064,4.07,0,4.07,0l-.13,3.828V215.23l.12,3.79s2.215.094,3.88.1h9.17s-.06,3.837-.06,8.95c0,3.574.06,7.22.06,7.22s-3.6,0-7.11-.22a47.42,47.42,0,0,0-6.06.43,31.611,31.611,0,0,0,.01,5.52c.47,5.28.06,10.64.11,16,.06,6.46,2.27,9.11,8.6,8.87,1.583-.058,4.45,0,4.45,0s.141,2.687,0,4.78a107.223,107.223,0,0,0,0,11.48c.023.8,0,2.95,0,2.95s-1.448-.062-2.82,0c-7.64.35-15.25,1.07-22.89,0-9.86-1.43-14.41-6.46-14.46-16.36-.05-9.15-.37-18.33.13-27.45.115-2.155,0-6,0-6a21.955,21.955,0,0,0-6.3,0c-.8.14-1.64.13-2.87.21,1.62,5.54,3.29,10.86,3.66,16.51a21.218,21.218,0,0,1-.79,5.19,31.217,31.217,0,0,1-4.26.2c-13.48-.3-27,.05-40.46-.2-1.851-.033-4.43.2-4.43.2a26.886,26.886,0,0,0,1.2,4.72c3.34,8.64,15.8,11,20,3.46.214-.377.936-1.67.936-1.67s1.327.053,2.344.06c6.83,0,13.66.12,20.48-.06.987-.026,2.9.06,2.9.06a24.611,24.611,0,0,1-.659,3.34c-1.75,5.65-5.11,10.33-10.19,13.11-15.57,8.53-31.81,9.81-47.71,1.46-13.7-7.2-19.75-23.22-16-39.07,3.51-15,16.41-25.66,32.29-26.62S377,218.35,387,233.82Z" transform="translate(13298 -620.613)" fill="#fe7900"/>
    <path id="Path_809" data-name="Path 809" d="M296,236.81c8.36,3.91,13.92,9.61,15.21,18.71,2,13.84-7.67,25.58-23.25,28.46-6.78,1.25-13.6.77-20.41.81-12.81.08-25.63-.06-38.44.09-3.05,0-4-.86-4-3.94.11-28.11.07-56.23.06-84.35,0-1.87-.27-3.69,2.64-3.6,17.77.56,35.63-1.33,53.33,1.09,13.49,1.84,23.09,10.44,25,21.07C307.81,224.56,304.22,231.58,296,236.81Z" transform="translate(13298 -620.613)" fill="#fe7900"/>
    <path id="Path_807" data-name="Path 807" d="M167,284.82c-14,0-28-.09-41.95.06-3.23,0-4.24-.82-4.22-4.16q.2-41.94,0-83.88c0-3.08.83-3.9,3.9-3.89q42,.18,83.9,0c2.94,0,4,.59,4,3.8q-.19,41.94,0,83.89c0,3.17-.82,4.3-4.2,4.25C194.62,284.7,180.8,284.82,167,284.82Z" transform="translate(13298.17 -620.613)" fill="#fe7900"/>
    <path id="Path_816" data-name="Path 816" d="M488.45,279.3c-9.57,7-20.24,8.92-31.7,6.61-10.15-2-15.74-8.53-16.33-18.6-.57-9.63,4.32-16.79,13.85-20.06,7.45-2.57,15.33-3,23-4.23a20.111,20.111,0,0,0,7.14-2.06c1.49-.87,2.74-2,2.41-4-.29-1.64-1.55-2.44-3-3a11.29,11.29,0,0,0-13.17,3.65,3.23,3.23,0,0,1-2.91,1.39H443.28c.95-11,5.8-17.78,15.54-20.47a79.9,79.9,0,0,1,39.52-.85c11.42,2.61,16.43,9.5,16.57,21.68.12,10.83.05,21.66,0,32.48,0,3.72.13,7.25,3.13,10.13,2,1.9.91,2.84-1.46,2.84-8,0-16-.12-24,.05C488.41,285,490.21,281.24,488.45,279.3Z" transform="translate(13298 -620.613)" fill="#fe7900"/>
    <path id="Path_811" data-name="Path 811" d="M352.65,243c-3,0-6-.12-8.92,0-.2.011-2.116-.01-2.116-.01a5.084,5.084,0,0,1,.316-2.92c1.7-4.62,5.33-7,10.85-6.93,5.86.09,10.42,3,11.86,7.33a6.164,6.164,0,0,1,0,2.52s-1.021.017-2.07,0C359.26,243,356,243,352.65,243Z" transform="translate(13298 -620.613)"/>
    <path id="Path_812" data-name="Path 812" d="M266.71,248.11c2.66,0,5.38-.33,8,.08,4.17.66,7.19,3.07,7.25,7.58s-3.3,6.51-7.19,6.83c-5.3.42-10.65.19-16,.21-1,0-2.33.07-2.38-1.18q-.24-6.22-.05-12.47c0-1.26,1.41-1.15,2.38-1.15h8Z" transform="translate(13298 -620.613)"/>
    <path id="Path_813" data-name="Path 813" d="M265,216c2.22.1,5-.24,7.81.67,3.08,1,5.42,2.68,5.45,6.21,0,3.31-2.15,5.12-5,6.08-5,1.7-10.21.6-15.32.82-1.22,0-1.75-.78-1.76-1.93v-10c0-1.59,1-1.91,2.27-1.9C260.45,216,262.44,216,265,216Z" transform="translate(13298 -620.613)"/>
    <path id="Path_808" data-name="Path 808" d="M135.23,250.65c-2.17-4.19-6.34-7.17-7.13-12.24a32.51,32.51,0,0,1,2.21-17.59c3.7-9.09,9.06-17.15,16.3-25.72,0,9.45.25,17.55-.08,25.64-.23,5.6,2.2,8.72,7.31,10.32a42.17,42.17,0,0,0,26.49-.21c4.56-1.52,7-4.46,6.79-9.7-.32-8.32-.09-16.65-.09-25.07,8.85,6,22.69,27.73,19,43.07-2.07,8.49-7.77,13.87-16,15.46-16.64,3.25-33.36,3.69-49.78-1.77a7.67,7.67,0,0,1-5.02-2.19Z" transform="translate(13298 -620.613)"/>
    <path id="Path_814" data-name="Path 814" d="M139.09,253.9c7.692,2.563,13.49,4.35,20.57,4.88,9.74.73,19.47.12,29.79-.43-2,1.84-4,3.6-5.88,5.54-4.16,4.32-8.27,8.74-9.76,14.8-.53,2.18-1.87,2.32-3.68,2.31-8.65-.05-17.3,0-25.95-.05-1.28,0-3.47.68-2.87-2,2.07-9.13-1.81-16.91-5.47-24.76a13.28,13.28,0,0,1-.6-1.88C137.49,250.49,138,252.89,139.09,253.9Z" transform="translate(13298 -620.613)"/>
    <path id="Path_815" data-name="Path 815" d="M139.561,254.022c-1.43-.17-2.721-1.942-4.321-1.692v-1.651l.829.6h0c.47.287,1.587.771,1.587.771l1.761.573.041.013.781.2Z" transform="translate(13298 -620.613)" fill="#fe7900"/>
    <path id="Path_817" data-name="Path 817" d="M475.8,271.13c-3.11-.17-6.72-.73-7.42-4.72s2.41-5.8,5.85-6.71c2.71-.73,5.48-1.25,8.21-1.92,4.77-1.18,5.61-.31,4.31,4.51C485.29,267.68,481.18,271.1,475.8,271.13Z" transform="translate(13298 -620.613)"/>
    <text id="IMPORTED_TO_AUSTRALIA_BY" data-name="IMPORTED TO AUSTRALIA BY" transform="translate(13620 -304.613)" fill="#fe7900" font-size="19" font-family="Gibson-Regular, Gibson" letter-spacing="0.16em"><tspan x="-153.605" y="0">IMPORTED TO AUSTRALIA BY</tspan></text>
    <text id="UNIPAC_EQUIPMENT_AUST_PTY_LTD_" data-name="UNIPAC EQUIPMENT (AUST) PTY LTD " transform="translate(13623 -272.613)" fill="#fff" font-size="19" font-family="Gibson-Medium, Gibson" font-weight="500" letter-spacing="0.16em"><tspan x="-201.809" y="0">UNIPAC EQUIPMENT (AUST) PTY LTD </tspan></text>
  </g>
</svg>
