<svg xmlns="http://www.w3.org/2000/svg" width="47.233" height="47.333" viewBox="0 0 47.233 47.333">
  <g id="phone-call" transform="translate(-0.539)">
    <g id="Group_19" data-name="Group 19" transform="translate(0.539 0)">
      <path id="Path_214" data-name="Path 214" d="M46.534,34.737l-6.605-6.605a4.393,4.393,0,0,0-7.313,1.651,4.5,4.5,0,0,1-5.19,2.831c-4.718-1.18-11.088-7.313-12.267-12.267a4.276,4.276,0,0,1,2.831-5.19A4.393,4.393,0,0,0,19.64,7.844L13.035,1.239a4.712,4.712,0,0,0-6.37,0L2.183,5.721C-2.3,10.439,2.655,22.942,13.743,34.03S37.333,50.307,42.052,45.589l4.482-4.482A4.711,4.711,0,0,0,46.534,34.737Z" transform="translate(-0.539 0)" fill="#fff"/>
    </g>
  </g>
</svg>
